<mxfile host="app.diagrams.net" modified="2024-01-13T15:53:43.952Z" agent="Mozilla/5.0 (X11; Linux x86_64; rv:109.0) Gecko/20100101 Firefox/112.0" etag="KlvYQKuNC_ppK8a3JVIP" version="22.1.18" type="GitHub">
  <diagram name="Page-1" id="2YBvvXClWsGukQMizWep">
    <mxGraphModel dx="558" dy="290" grid="1" gridSize="10" guides="1" tooltips="1" connect="1" arrows="1" fold="1" page="1" pageScale="1" pageWidth="850" pageHeight="1100" math="0" shadow="0">
      <root>
        <mxCell id="0" />
        <mxCell id="1" parent="0" />
        <mxCell id="aM9ryv3xv72pqoxQDRHE-1" value="&lt;div&gt;Relying Party &lt;br&gt;&lt;/div&gt;&lt;div&gt;(website) &lt;/div&gt;" style="shape=umlLifeline;perimeter=lifelinePerimeter;whiteSpace=wrap;html=1;container=0;dropTarget=0;collapsible=0;recursiveResize=0;outlineConnect=0;portConstraint=eastwest;newEdgeStyle={&quot;edgeStyle&quot;:&quot;elbowEdgeStyle&quot;,&quot;elbow&quot;:&quot;vertical&quot;,&quot;curved&quot;:0,&quot;rounded&quot;:0};" parent="1" vertex="1">
          <mxGeometry x="30" y="40" width="120" height="300" as="geometry" />
        </mxCell>
        <mxCell id="aM9ryv3xv72pqoxQDRHE-5" value="&lt;div&gt;Identity Provider&lt;/div&gt;&lt;div&gt;(GitHub)&lt;br&gt;&lt;/div&gt;" style="shape=umlLifeline;perimeter=lifelinePerimeter;whiteSpace=wrap;html=1;container=0;dropTarget=0;collapsible=0;recursiveResize=0;outlineConnect=0;portConstraint=eastwest;newEdgeStyle={&quot;edgeStyle&quot;:&quot;elbowEdgeStyle&quot;,&quot;elbow&quot;:&quot;vertical&quot;,&quot;curved&quot;:0,&quot;rounded&quot;:0};" parent="1" vertex="1">
          <mxGeometry x="315" y="30" width="100" height="300" as="geometry" />
        </mxCell>
        <mxCell id="QjCBGKmE3sHR-Tw6iVyZ-2" value="Alice signs in with her GitHub credentials" style="rounded=0;whiteSpace=wrap;html=1;" vertex="1" parent="1">
          <mxGeometry x="305" y="160" width="120" height="60" as="geometry" />
        </mxCell>
        <mxCell id="QjCBGKmE3sHR-Tw6iVyZ-3" value="&lt;div align=&quot;center&quot;&gt;&lt;font style=&quot;font-size: 12px;&quot;&gt;&amp;nbsp;Alice clicks on &quot;Sign in with GitHub&quot;&lt;/font&gt;&lt;/div&gt;" style="rounded=0;whiteSpace=wrap;html=1;align=center;" vertex="1" parent="1">
          <mxGeometry x="30" y="120" width="120" height="60" as="geometry" />
        </mxCell>
        <mxCell id="QjCBGKmE3sHR-Tw6iVyZ-4" value="" style="endArrow=classic;html=1;rounded=0;exitX=1;exitY=0.5;exitDx=0;exitDy=0;entryX=0;entryY=0.5;entryDx=0;entryDy=0;" edge="1" parent="1" source="QjCBGKmE3sHR-Tw6iVyZ-3" target="QjCBGKmE3sHR-Tw6iVyZ-2">
          <mxGeometry width="50" height="50" relative="1" as="geometry">
            <mxPoint x="240" y="200" as="sourcePoint" />
            <mxPoint x="290" y="150" as="targetPoint" />
          </mxGeometry>
        </mxCell>
        <mxCell id="QjCBGKmE3sHR-Tw6iVyZ-5" value="&lt;div&gt;Alice is &lt;br&gt;&lt;/div&gt;&lt;div&gt;redirected to &lt;br&gt;&lt;/div&gt;&lt;div&gt;GitHub&lt;br&gt;&lt;/div&gt;" style="edgeLabel;html=1;align=center;verticalAlign=middle;resizable=0;points=[];" vertex="1" connectable="0" parent="QjCBGKmE3sHR-Tw6iVyZ-4">
          <mxGeometry x="0.0005" y="3" relative="1" as="geometry">
            <mxPoint as="offset" />
          </mxGeometry>
        </mxCell>
        <mxCell id="QjCBGKmE3sHR-Tw6iVyZ-6" value="&lt;div align=&quot;center&quot;&gt;Alice is now &lt;br&gt;&lt;/div&gt;&lt;div align=&quot;center&quot;&gt;signed in&lt;br&gt;&lt;/div&gt;" style="rounded=0;whiteSpace=wrap;html=1;align=center;" vertex="1" parent="1">
          <mxGeometry x="30" y="260" width="120" height="60" as="geometry" />
        </mxCell>
        <mxCell id="QjCBGKmE3sHR-Tw6iVyZ-8" value="" style="endArrow=classic;html=1;rounded=0;entryX=1.003;entryY=0.589;entryDx=0;entryDy=0;entryPerimeter=0;exitX=0;exitY=0.5;exitDx=0;exitDy=0;" edge="1" parent="1" source="QjCBGKmE3sHR-Tw6iVyZ-2" target="QjCBGKmE3sHR-Tw6iVyZ-6">
          <mxGeometry width="50" height="50" relative="1" as="geometry">
            <mxPoint x="240" y="260" as="sourcePoint" />
            <mxPoint x="290" y="210" as="targetPoint" />
          </mxGeometry>
        </mxCell>
        <mxCell id="QjCBGKmE3sHR-Tw6iVyZ-9" value="&lt;div&gt;Redirect to &lt;br&gt;&lt;/div&gt;&lt;div&gt;the website with&lt;/div&gt;&lt;div&gt;an access token&lt;br&gt;&lt;/div&gt;" style="edgeLabel;html=1;align=center;verticalAlign=middle;resizable=0;points=[];" vertex="1" connectable="0" parent="QjCBGKmE3sHR-Tw6iVyZ-8">
          <mxGeometry x="0.004" y="-1" relative="1" as="geometry">
            <mxPoint as="offset" />
          </mxGeometry>
        </mxCell>
      </root>
    </mxGraphModel>
  </diagram>
</mxfile>
